HIERARCHY
ROOT Hips
{
  OFFSET 0.0000 0.0000 0.0000
  CHANNELS 6 Xposition Yposition Zposition Zrotation Xrotation Yrotation
  JOINT Chest
  {
    OFFSET -0.1728 10.2870 0.1254
    CHANNELS 3 Zrotation Xrotation Yrotation
    JOINT Chest2
    {
      OFFSET 0.3229 15.8173 -2.6440
      CHANNELS 3 Zrotation Xrotation Yrotation
      JOINT LeftCollar
      {
        OFFSET -0.0683 16.8828 0.2989
        CHANNELS 3 Zrotation Xrotation Yrotation
        JOINT LeftShoulder
        {
          OFFSET 16.0110 -3.0750 2.0528
          CHANNELS 3 Zrotation Xrotation Yrotation
          JOINT LeftElbow
          {
            OFFSET 2.6153 -25.4187 1.7231
            CHANNELS 3 Zrotation Xrotation Yrotation
            JOINT LeftWrist
            {
              OFFSET 2.3595 -22.4741 1.0488
              CHANNELS 3 Zrotation Xrotation Yrotation
              End Site
              {
                  OFFSET 2.1900 -14.0561 0.4357
              }
            }
          }
        }
      }
      JOINT RightCollar
      {
        OFFSET -0.0683 16.8828 0.2989
        CHANNELS 3 Zrotation Xrotation Yrotation
        JOINT RightShoulder
        {
          OFFSET -16.3743 -2.4390 2.0841
          CHANNELS 3 Zrotation Xrotation Yrotation
          JOINT RightElbow
          {
            OFFSET -2.6865 -25.0857 1.2959
            CHANNELS 3 Zrotation Xrotation Yrotation
            JOINT RightWrist
            {
              OFFSET -2.3810 -22.8348 1.0329
              CHANNELS 3 Zrotation Xrotation Yrotation
              End Site
              {
                  OFFSET -1.7327 -14.7716 2.0390
              }
            }
          }
        }
      }
      JOINT Neck
      {
        OFFSET -0.0683 16.8828 0.2989
        CHANNELS 3 Zrotation Xrotation Yrotation
        JOINT Head
        {
          OFFSET 0.1300 11.4121 4.7143
          CHANNELS 3 Zrotation Xrotation Yrotation
          End Site
          {
              OFFSET 0.7676 18.0170 1.0373
          }
        }
      }
    }
  }
  JOINT LeftHip
  {
    OFFSET 9.3186 -0.0408 3.5432
    CHANNELS 3 Zrotation Xrotation Yrotation
    JOINT LeftKnee
    {
      OFFSET -0.5435 -48.8357 0.3144
      CHANNELS 3 Zrotation Xrotation Yrotation
      JOINT LeftAnkle
      {
        OFFSET 0.2027 -38.4920 -4.2946
        CHANNELS 3 Zrotation Xrotation Yrotation
        End Site
        {
            OFFSET 2.0625 -7.4590 18.3031
        }
      }
    }
  }
  JOINT RightHip
  {
    OFFSET -10.0712 -0.0749 3.1483
    CHANNELS 3 Zrotation Xrotation Yrotation
    JOINT RightKnee
    {
      OFFSET 0.3157 -48.5179 0.1055
      CHANNELS 3 Zrotation Xrotation Yrotation
      JOINT RightAnkle
      {
        OFFSET -1.1248 -38.4399 -3.4305
        CHANNELS 3 Zrotation Xrotation Yrotation
        End Site
        {
            OFFSET -0.5240 -7.4169 17.9784
        }
      }
    }
  }
}
MOTION
Frames:	27
Frame Time:	0.033333
60.4835 104.6122 70.6941 30.11 1.67 -112.51 -0.33 -9.55 24.55 -0.29 -9.55 24.60 -0.18 -0.70 0.26 82.74 1.92 16.81 9.63 -8.61 -1.74 -1.16 15.67 -16.81 -0.01 -0.80 0.01 -74.62 -49.87 32.76 -14.01 -11.41 3.32 3.67 -4.88 7.00 2.47 -3.42 -24.25 5.53 3.25 -24.24 9.49 -34.11 15.37 0.09 5.07 0.26 7.30 19.41 -14.42 -126.56 -65.75 -112.93 15.91 0.77 -4.85 -11.68 -1.52 -69.33 
61.9232 104.9060 68.1369 28.86 7.11 -106.70 1.02 -8.26 20.91 1.05 -8.26 20.96 -0.18 -0.70 0.26 92.62 -2.11 18.21 9.63 -8.63 -1.74 -1.52 14.95 -15.56 -0.01 -0.80 0.01 -79.83 -42.39 22.17 -14.07 -10.18 3.32 1.29 -2.45 12.17 3.53 -2.72 -23.28 6.48 4.01 -23.32 9.39 -33.00 19.50 0.09 2.81 0.16 6.46 21.64 -6.14 -128.82 -58.80 -116.81 15.33 0.13 -4.00 -14.48 -9.24 -69.97 
62.9692 104.7366 65.0634 26.49 12.68 -99.45 2.24 -7.02 16.93 2.28 -7.02 16.98 -0.18 -0.70 0.26 103.18 -8.73 20.07 9.66 -7.34 -1.70 -2.59 12.73 -12.09 -0.01 -0.80 0.01 -82.90 -33.07 10.74 -13.97 -12.55 3.32 -4.63 0.85 17.02 4.78 -1.55 -22.41 7.64 5.21 -22.51 8.32 -32.47 23.39 0.10 0.83 0.07 5.71 22.71 3.40 -128.08 -53.37 -115.73 14.60 0.59 -3.42 -15.07 -13.73 -66.41 
63.6023 104.2983 61.7911 23.03 17.84 -91.40 3.40 -5.86 13.16 3.45 -5.86 13.21 -0.18 -0.70 0.26 113.43 -17.68 23.35 9.69 -5.17 -1.63 -3.53 9.51 -7.62 -0.01 -0.80 0.01 -83.74 -22.58 -1.32 -13.69 -18.79 3.34 -11.90 4.97 23.24 5.98 -0.15 -21.63 8.77 6.65 -21.79 6.92 -32.38 27.19 0.10 -1.02 -0.01 5.11 23.05 12.60 -127.68 -50.37 -115.77 13.57 1.49 -3.09 -12.95 -13.16 -57.78 
63.8305 103.7846 58.6640 18.45 22.32 -82.90 4.83 -4.61 9.78 4.87 -4.62 9.84 -0.18 -0.70 0.26 122.48 -27.80 28.51 9.72 -3.45 -1.57 -3.50 6.48 -3.88 -0.01 -0.80 0.01 -83.11 -12.29 -11.84 -13.32 -26.78 3.42 -18.19 8.91 30.69 6.76 1.19 -20.84 9.46 8.02 -21.07 5.89 -32.21 30.15 0.10 -2.63 -0.09 4.57 23.02 19.96 -128.04 -50.49 -120.30 12.16 2.28 -2.88 -9.65 -7.39 -45.13 
63.6805 103.3058 55.8515 12.35 26.20 -73.56 6.90 -3.17 6.61 6.95 -3.17 6.66 -0.18 -0.70 0.26 129.99 -38.04 35.29 9.72 -3.42 -1.57 -2.13 4.79 -2.09 -0.01 -0.80 0.01 -82.76 -3.18 -18.26 -12.99 -33.31 3.54 -22.24 11.58 37.24 6.78 2.36 -19.96 9.39 9.23 -20.23 5.81 -31.40 31.29 0.09 -3.73 -0.14 4.02 22.67 24.88 -128.91 -53.80 -129.28 10.38 2.87 -2.69 -7.47 1.41 -30.39 
63.2204 102.8829 53.3128 4.40 29.27 -62.90 9.81 -1.54 3.37 9.86 -1.55 3.42 -0.18 -0.70 0.26 136.56 -47.94 43.30 9.69 -5.36 -1.63 0.29 4.69 -2.55 -0.01 -0.80 0.01 -83.82 4.71 -19.60 -12.80 -36.61 3.62 -24.15 12.71 41.23 6.10 3.33 -18.97 8.60 10.24 -19.26 6.83 -29.79 30.30 0.09 -4.17 -0.16 3.44 21.96 27.67 -130.40 -59.57 -140.36 8.41 3.55 -2.41 -7.44 9.66 -15.35 
62.5406 102.4554 50.9245 -4.62 30.79 -51.35 12.95 -0.01 0.04 13.00 -0.01 0.09 -0.18 -0.70 0.26 143.83 -57.19 52.82 9.63 -9.05 -1.76 2.94 5.67 -5.18 -0.01 -0.80 0.01 -85.65 11.44 -17.49 -12.76 -37.26 3.64 -24.71 12.90 43.35 5.07 4.18 -17.84 7.44 11.13 -18.15 8.42 -27.71 27.89 0.09 -3.97 -0.15 2.86 20.77 28.72 -132.88 -66.64 -151.12 6.51 4.81 -2.05 -8.78 14.35 -2.11 
61.6997 101.9179 48.6446 -12.92 30.18 -40.39 15.41 1.20 -3.21 15.46 1.20 -3.15 -0.18 -0.70 0.26 153.68 -65.27 64.53 9.52 -14.15 -1.94 4.92 7.10 -9.85 -0.01 -0.80 0.01 -86.40 16.73 -14.46 -12.82 -36.36 3.61 -24.46 13.10 45.23 4.10 4.93 -16.58 6.33 11.94 -16.89 9.78 -25.57 25.02 0.10 -3.33 -0.13 2.26 19.09 28.10 -136.69 -73.94 -160.28 4.89 7.02 -1.65 -9.79 14.27 6.99 
60.7327 101.2076 46.5687 -18.82 27.68 -31.35 16.53 2.02 -6.25 16.58 2.01 -6.20 -0.18 -0.70 0.26 166.38 -71.83 78.15 9.37 -20.22 -2.18 5.86 8.51 -15.98 -0.01 -0.80 0.01 -84.83 20.08 -11.65 -12.95 -33.97 3.55 -23.36 13.79 47.26 3.29 5.67 -15.09 5.35 12.73 -15.40 10.17 -23.51 22.45 0.10 -2.42 -0.10 1.65 16.96 25.59 -142.81 -80.98 -168.26 3.66 10.33 -1.25 -9.51 10.00 11.04 
59.7186 100.3678 44.8456 -22.27 24.14 -24.20 16.57 2.54 -9.20 16.63 2.52 -9.15 -0.18 -0.70 0.26 -179.54 -77.28 92.14 9.18 -26.61 -2.46 6.09 9.59 -22.23 -0.01 -0.80 0.01 -81.33 21.15 -8.26 -13.18 -29.65 3.47 -21.27 14.57 48.26 2.42 6.38 -13.34 4.27 13.49 -13.63 9.60 -21.46 20.49 0.10 -1.50 -0.06 1.01 14.73 21.31 -167.83 -87.67 167.92 2.74 14.23 -0.88 -8.33 3.25 11.32 
58.8076 99.5051 43.5551 -23.85 20.28 -18.23 16.11 2.80 -12.21 16.16 2.78 -12.16 -0.18 -0.70 0.26 -162.65 -82.38 108.43 8.95 -32.51 -2.76 6.00 10.13 -27.20 -0.01 -0.80 0.01 -77.11 20.43 -2.94 -13.48 -23.51 3.38 -18.24 14.66 47.09 1.18 7.02 -11.29 2.78 14.19 -11.54 8.23 -19.37 19.32 0.11 -0.71 -0.03 0.51 12.79 15.68 53.98 -84.85 32.64 1.98 17.76 -0.54 -6.98 -3.71 10.18 
58.1663 98.7015 42.6709 -24.30 16.64 -12.68 15.70 2.82 -15.31 15.76 2.80 -15.26 -0.18 -0.70 0.26 -118.55 -86.68 151.93 8.73 -37.25 -3.03 5.72 10.25 -30.31 -0.01 -0.80 0.01 -72.84 19.10 4.31 -13.78 -16.90 3.33 -14.70 13.59 44.21 -0.56 7.41 -8.95 0.76 14.63 -9.14 6.32 -17.35 18.97 0.11 -0.28 -0.01 0.20 11.58 9.26 46.48 -77.68 28.14 1.31 19.84 -0.22 -5.74 -8.70 9.52 
57.9124 97.9712 42.1040 -23.94 13.46 -7.08 15.52 2.56 -18.40 15.58 2.53 -18.34 -0.18 -0.70 0.26 -37.72 -85.12 -127.64 8.55 -40.58 -3.25 5.20 10.11 -31.82 -0.01 -0.80 0.01 -68.46 18.35 11.86 -14.01 -11.49 3.32 -11.19 11.81 41.37 -2.60 7.39 -6.31 -1.62 14.66 -6.43 3.91 -15.49 19.29 0.11 -0.10 -0.00 0.11 11.19 2.33 45.37 -70.43 29.19 0.74 19.64 0.05 -4.53 -10.70 10.02 
58.1008 97.2694 41.7514 -23.10 10.81 -1.09 15.66 2.03 -21.26 15.72 2.00 -21.20 -0.18 -0.70 0.26 -20.80 -80.88 -111.15 8.44 -42.45 -3.39 4.41 9.67 -31.95 -0.01 -0.80 0.01 -63.85 18.83 17.72 -14.15 -8.22 3.32 -7.95 10.24 40.14 -4.69 6.79 -3.44 -4.07 14.09 -3.48 1.14 -13.85 19.98 0.11 -0.05 -0.00 0.12 11.52 -4.85 45.15 -63.65 30.39 0.35 17.23 0.22 -3.18 -10.13 11.37 
58.7385 96.5011 41.5088 -21.98 8.61 5.44 16.06 1.27 -23.69 16.12 1.23 -23.63 -0.18 -0.70 0.26 -18.47 -77.38 -109.67 8.39 -43.22 -3.44 3.41 8.60 -30.37 -0.01 -0.80 0.01 -58.93 20.52 20.97 -14.21 -6.80 3.32 -4.80 9.52 40.67 -6.56 5.61 -0.38 -6.32 12.93 -0.33 -1.88 -12.34 20.66 0.11 0.20 0.01 0.20 12.07 -11.90 44.79 -57.74 30.87 0.14 13.24 0.28 -1.68 -8.00 13.15 
59.7895 95.5399 41.2669 -20.84 6.74 12.55 16.69 0.35 -25.51 16.76 0.31 -25.45 -0.18 -0.70 0.26 -19.29 -75.09 -111.83 8.37 -43.52 -3.47 2.35 6.58 -26.62 -0.01 -0.80 0.01 -53.67 22.93 22.23 -14.23 -6.41 3.32 -1.51 9.51 41.82 -8.11 3.97 2.82 -8.27 11.28 2.93 -4.93 -10.81 21.00 0.11 0.84 0.04 0.32 12.29 -18.25 44.18 -53.02 30.50 0.06 8.71 0.29 -0.07 -5.33 15.25 
61.1759 94.2737 40.9186 -19.83 5.01 20.05 17.46 -0.58 -26.59 17.53 -0.62 -26.53 -0.18 -0.70 0.26 -20.05 -74.18 -114.23 8.32 -44.23 -3.52 1.42 3.55 -20.58 -0.01 -0.80 0.01 -48.14 25.53 22.75 -14.23 -6.33 3.33 1.97 9.61 42.32 -9.30 2.03 6.13 -9.87 9.31 6.28 -7.80 -9.11 20.80 0.11 1.98 0.08 0.45 11.69 -23.42 43.49 -49.56 29.32 0.03 4.87 0.27 1.45 -2.74 17.56 
62.8072 92.6589 40.3762 -19.02 3.27 27.75 18.27 -1.32 -26.92 18.34 -1.36 -26.86 -0.18 -0.70 0.26 -18.69 -74.71 -114.45 8.19 -46.01 -3.67 0.78 -0.16 -12.89 -0.01 -0.80 0.01 -42.60 27.84 23.72 -14.23 -6.20 3.33 5.39 9.25 41.66 -10.11 -0.09 9.53 -11.08 7.13 9.68 -10.29 -7.14 20.02 0.11 3.61 0.15 0.55 10.19 -27.28 42.80 -47.46 27.63 0.00 2.97 0.26 2.72 -0.53 19.88 
64.6418 90.7378 39.5919 -18.33 1.42 35.39 19.00 -1.70 -26.59 19.07 -1.74 -26.53 -0.18 -0.70 0.26 -12.75 -76.57 -109.82 7.98 -48.74 -3.91 0.55 -4.13 -4.49 -0.01 -0.80 0.01 -37.69 29.35 25.65 -14.24 -6.12 3.33 8.39 8.35 40.17 -10.45 -2.28 12.99 -11.83 4.87 13.12 -12.30 -4.81 18.85 0.10 5.60 0.24 0.62 8.32 -30.17 41.94 -46.61 25.85 -0.04 3.95 0.25 3.69 1.14 21.91 
66.7293 88.6225 38.5715 -17.66 -0.54 42.78 19.59 -1.63 -25.78 19.66 -1.66 -25.71 -0.18 -0.70 0.26 2.30 -79.06 -95.76 7.73 -51.43 -4.19 0.69 -7.95 3.70 -0.01 -0.80 0.01 -34.16 29.69 28.56 -14.24 -6.17 3.33 10.71 7.17 38.29 -10.23 -4.42 16.50 -12.02 2.62 16.56 -13.84 -2.11 17.59 0.09 7.75 0.33 0.67 6.95 -32.60 40.95 -46.79 24.70 -0.10 7.76 0.21 4.47 2.30 23.46 
69.1782 86.4688 37.3720 -17.00 -2.53 49.70 20.05 -1.16 -24.63 20.12 -1.20 -24.57 -0.18 -0.70 0.26 31.63 -80.31 -67.20 7.58 -52.94 -4.36 1.13 -11.22 10.99 -0.01 -0.80 0.01 -32.67 28.96 31.82 -14.23 -6.29 3.33 12.36 6.12 36.11 -9.48 -6.40 19.96 -11.67 0.51 19.93 -14.86 0.80 16.65 0.08 9.99 0.43 0.64 7.10 -35.04 40.01 -47.61 25.02 -0.15 13.31 0.15 5.22 3.31 24.42 
72.0626 84.4490 36.0719 -16.41 -4.45 56.02 20.47 -0.48 -23.25 20.54 -0.51 -23.18 -0.18 -0.70 0.26 63.06 -78.04 -36.46 7.63 -52.49 -4.31 1.72 -13.65 17.03 -0.01 -0.80 0.01 -33.48 27.43 34.46 -14.24 -6.17 3.33 13.52 5.47 33.44 -8.42 -8.23 23.28 -10.98 -1.46 23.14 -15.23 3.48 16.42 0.06 12.58 0.54 0.51 9.83 -37.60 39.67 -48.75 27.71 -0.22 19.37 0.08 5.86 4.88 24.46 
75.3483 82.7412 34.7326 -16.10 -6.23 61.61 20.97 0.25 -21.58 21.03 0.22 -21.51 -0.18 -0.70 0.26 80.72 -72.85 -19.50 7.85 -50.20 -4.06 2.35 -15.08 21.75 -0.01 -0.80 0.01 -36.24 25.55 35.54 -14.26 -5.60 3.33 14.41 5.30 30.24 -7.42 -9.99 26.31 -10.33 -3.36 26.03 -14.68 5.11 17.18 0.02 16.25 0.71 0.51 15.65 -39.38 40.32 -49.99 33.15 -0.29 25.23 -0.00 6.39 7.29 23.02 
78.8961 81.5035 33.3783 -16.12 -7.78 66.49 21.52 0.91 -19.59 21.58 0.89 -19.53 -0.18 -0.70 0.26 88.37 -66.26 -12.64 8.16 -46.53 -3.71 2.92 -15.75 25.31 -0.01 -0.80 0.01 -40.25 23.74 34.74 -14.30 -4.64 3.33 15.16 5.56 27.25 -6.85 -11.76 28.96 -10.05 -5.28 28.54 -12.95 4.74 18.98 -0.06 22.04 0.98 0.88 23.74 -38.44 41.73 -51.29 40.41 -0.35 31.12 -0.09 7.20 9.22 19.72 
82.5206 80.8182 32.0120 -16.47 -9.02 70.85 22.01 1.44 -17.26 22.07 1.43 -17.20 -0.18 -0.70 0.26 90.97 -59.04 -11.07 8.47 -41.94 -3.35 3.45 -16.13 27.95 -0.01 -0.80 0.01 -44.93 22.33 32.18 -14.34 -3.79 3.34 15.84 6.26 25.29 -6.89 -13.48 31.17 -10.34 -7.13 30.60 -10.01 1.71 21.49 -0.26 30.85 1.44 1.05 31.40 -32.95 42.87 -52.60 47.40 -0.34 37.40 -0.21 8.99 8.14 14.98 
86.0503 80.6189 30.6459 -17.00 -9.88 75.08 22.19 1.78 -14.73 22.25 1.78 -14.67 -0.18 -0.70 0.26 90.83 -51.51 -12.64 8.76 -36.71 -3.00 3.84 -16.60 29.68 -0.01 -0.80 0.01 -49.94 21.47 28.54 -14.35 -3.51 3.34 16.39 7.33 24.79 -7.40 -14.84 32.96 -11.05 -8.60 32.27 -6.15 -4.11 23.95 -0.71 42.68 2.22 0.26 34.91 -23.21 42.60 -53.91 52.12 -0.20 43.60 -0.35 11.54 3.08 10.04 
